<svg width="22" height="21" viewBox="0 0 22 21" fill="none" xmlns="http://www.w3.org/2000/svg">
<path d="M17.2823 15.242L21.7438 19.524L20.2698 20.939L15.8094 16.656C14.1498 17.9332 12.0855 18.6279 9.95837 18.625C4.78337 18.625 0.583374 14.593 0.583374 9.625C0.583374 4.657 4.78337 0.625 9.95837 0.625C15.1334 0.625 19.3334 4.657 19.3334 9.625C19.3364 11.667 18.6128 13.6487 17.2823 15.242ZM15.1927 14.5C16.5147 13.1949 17.253 11.4454 17.25 9.625C17.25 5.757 13.9865 2.625 9.95837 2.625C5.92921 2.625 2.66671 5.757 2.66671 9.625C2.66671 13.492 5.92921 16.625 9.95837 16.625C11.8547 16.6279 13.677 15.9191 15.0365 14.65L15.1927 14.5Z" fill="#3C3C3C"/>
</svg>
