<svg width="28" height="17" viewBox="0 0 28 17" fill="none" xmlns="http://www.w3.org/2000/svg">
<path d="M25.25 5.625V3.625H23V5.625H20.75V7.625H23V9.625H25.25V7.625H27.5V5.625H25.25ZM9.5 8.625C11.9862 8.625 14 6.835 14 4.625C14 2.415 11.9862 0.625 9.5 0.625C7.01375 0.625 5 2.415 5 4.625C5 6.835 7.01375 8.625 9.5 8.625ZM9.5 2.625C10.7375 2.625 11.75 3.525 11.75 4.625C11.75 5.725 10.7375 6.625 9.5 6.625C8.2625 6.625 7.25 5.725 7.25 4.625C7.25 3.525 8.2625 2.625 9.5 2.625ZM9.5 9.625C6.49625 9.625 0.5 10.965 0.5 13.625V16.625H18.5V13.625C18.5 10.965 12.5037 9.625 9.5 9.625ZM16.25 14.625H2.75V13.635C2.975 12.915 6.4625 11.625 9.5 11.625C12.5375 11.625 16.025 12.915 16.25 13.625V14.625ZM14.5738 0.675C15.6088 1.735 16.25 3.115 16.25 4.625C16.25 6.135 15.6088 7.515 14.5738 8.575C16.7787 8.325 18.5 6.665 18.5 4.625C18.5 2.585 16.7787 0.925 14.5738 0.675ZM19.0963 10.455C20.0975 11.285 20.75 12.325 20.75 13.625V16.625H23V13.625C23 12.175 21.2113 11.115 19.0963 10.455Z" fill="#3C3C3C"/>
</svg>
