<svg width="25" height="16" viewBox="0 0 25 16" fill="none" xmlns="http://www.w3.org/2000/svg">
<path d="M1.38889 16C0.99537 16 0.665741 15.872 0.4 15.616C0.133333 15.3609 0 15.0444 0 14.6667C0 14.2889 0.133333 13.9724 0.4 13.7173C0.665741 13.4613 0.99537 13.3333 1.38889 13.3333H23.6111C24.0046 13.3333 24.3343 13.4613 24.6 13.7173C24.8667 13.9724 25 14.2889 25 14.6667C25 15.0444 24.8667 15.3609 24.6 15.616C24.3343 15.872 24.0046 16 23.6111 16H1.38889ZM1.38889 9.33333C0.99537 9.33333 0.665741 9.20533 0.4 8.94933C0.133333 8.69422 0 8.37778 0 8C0 7.62222 0.133333 7.30533 0.4 7.04933C0.665741 6.79422 0.99537 6.66667 1.38889 6.66667H23.6111C24.0046 6.66667 24.3343 6.79422 24.6 7.04933C24.8667 7.30533 25 7.62222 25 8C25 8.37778 24.8667 8.69422 24.6 8.94933C24.3343 9.20533 24.0046 9.33333 23.6111 9.33333H1.38889ZM1.38889 2.66667C0.99537 2.66667 0.665741 2.53911 0.4 2.284C0.133333 2.028 0 1.71111 0 1.33333C0 0.955556 0.133333 0.638667 0.4 0.382667C0.665741 0.127556 0.99537 0 1.38889 0H23.6111C24.0046 0 24.3343 0.127556 24.6 0.382667C24.8667 0.638667 25 0.955556 25 1.33333C25 1.71111 24.8667 2.028 24.6 2.284C24.3343 2.53911 24.0046 2.66667 23.6111 2.66667H1.38889Z" fill="#DE4F00"/>
</svg>
