<svg width="24" height="24" viewBox="0 0 24 24" fill="none" xmlns="http://www.w3.org/2000/svg">
<path d="M23 12.0019C23.0006 10.1724 22.5447 8.3716 21.6736 6.76268C20.8026 5.15376 19.5439 3.78752 18.0115 2.78769C16.4791 1.78786 14.7215 1.18602 12.8978 1.0367C11.0741 0.887373 9.242 1.19527 7.56736 1.93251C5.89271 2.66974 4.42845 3.81303 3.3072 5.25881C2.18594 6.7046 1.44312 8.40721 1.14599 10.2124C0.84887 12.0177 1.00684 13.8685 1.60559 15.5973C2.20433 17.3261 3.22495 18.8783 4.575 20.1132L4.7125 20.2401C6.72344 22.0184 9.31538 23 12 23C14.6846 23 17.2766 22.0184 19.2875 20.2401L19.425 20.1132C20.5526 19.0843 21.453 17.8315 22.0686 16.4348C22.6842 15.038 23.0015 13.5282 23 12.0019ZM2.69231 12.0019C2.69175 10.4946 3.05736 9.00976 3.75769 7.67502C4.45802 6.34028 5.47211 5.19559 6.71276 4.33939C7.95342 3.48319 9.3835 2.9411 10.88 2.75973C12.3766 2.57837 13.8948 2.76316 15.3041 3.29822C16.7134 3.83327 17.9716 4.70258 18.9706 5.83138C19.9696 6.96019 20.6794 8.3147 21.039 9.77846C21.3986 11.2422 21.3972 12.7714 21.035 14.2345C20.6728 15.6976 19.9606 17.0509 18.9596 18.1779C18.0162 16.8099 16.687 15.7534 15.1413 15.1428C15.9704 14.4899 16.5753 13.5949 16.8721 12.5824C17.1688 11.5698 17.1426 10.4899 16.7971 9.49292C16.4515 8.49593 15.8039 7.63138 14.9441 7.01949C14.0844 6.40761 13.0553 6.0788 12 6.0788C10.9447 6.0788 9.91561 6.40761 9.05587 7.01949C8.19613 7.63138 7.54846 8.49593 7.20293 9.49292C6.8574 10.4899 6.83118 11.5698 7.12792 12.5824C7.42466 13.5949 8.02962 14.4899 8.85865 15.1428C7.31295 15.7534 5.98383 16.8099 5.04038 18.1779C3.5251 16.4777 2.6892 14.2791 2.69231 12.0019ZM8.61538 11.1558C8.61538 10.4865 8.81389 9.83225 9.18579 9.27573C9.5577 8.71922 10.0863 8.28547 10.7048 8.02933C11.3232 7.7732 12.0038 7.70618 12.6603 7.83676C13.3169 7.96733 13.9199 8.28964 14.3933 8.76292C14.8666 9.23619 15.189 9.83919 15.3196 10.4956C15.4502 11.1521 15.3831 11.8325 15.127 12.4509C14.8708 13.0693 14.437 13.5978 13.8804 13.9696C13.3238 14.3415 12.6694 14.54 12 14.54C11.1032 14.5372 10.2439 14.1797 9.6098 13.5457C8.97566 12.9117 8.61817 12.0525 8.61538 11.1558ZM6.29904 19.3518C6.91136 18.3955 7.75446 17.6086 8.75071 17.0636C9.74697 16.5185 10.8644 16.2329 12 16.2329C13.1356 16.2329 14.253 16.5185 15.2493 17.0636C16.2455 17.6086 17.0886 18.3955 17.701 19.3518C16.0709 20.6192 14.0649 21.3073 12 21.3073C9.93508 21.3073 7.92906 20.6192 6.29904 19.3518Z" fill="#3B3B3B" stroke="#3C3C3C" stroke-width="0.7"/>
</svg>
